<?xml version="1.0" encoding="UTF-8"?><svg id="Ebene_2" xmlns="http://www.w3.org/2000/svg" viewBox="0 0 187.28 85.84"><defs><style>.cls-1{fill:#002f5d;}.cls-2{fill:#fff;}</style></defs><g id="Ebene_1-2"><g><g><rect class="cls-2" width="57.89" height="18.69"/><path class="cls-2" d="M179.25,42.06l-2.2,2.38,2.13-2.39c-6.3-5.6-14.82-7.69-21.85-5.43v-.4c-.04-7.11-5.86-12.93-13-12.97h-11.33v2.62c-2.18-1.66-4.9-2.66-7.85-2.66l-.02-.04h-11.29v15.2c-2.15-1.56-4.79-2.5-7.65-2.5l-11.31,.09v24.61c0,.61-.15,1.2-.45,1.73l-.3,.46c-.04,.06-.1,.13-.19,.24-.08,.08-.16,.15-.23,.23l-.15,.12c-.48,.41-1.06,.67-1.69,.75-.1,0-.2,0-.29,0h-.93c-.28-.06-.56-.15-.82-.28l-.13-.06c-.29-.14-.57-.31-.8-.5-.95-.8-1.55-1.92-1.7-3.25l-.08-.58c-.75-5.6-1.45-10.89-4.64-14.93-5-6.38-11.97-8.65-16.42-8.65-3.02,0-5.82,.48-8.31,1.38v-1c0-7.17-5.83-13-13-13h-11.3v12.12h-2.59c-.46-6.75-6.1-12.11-12.97-12.11H6.56v12.11H0v22.94H6.55v2.35c0,13.9,11.29,25.21,25.23,25.21h26v-25.21c0-.33,.05-.66,.15-1.02,.19-.71,.58-1.35,1.07-1.78,.14-.12,.29-.23,.45-.33,.13-.08,.26-.15,.4-.21,.57-.26,1.2-.37,1.83-.32l.33,.06c1.82,.29,2.82,1.59,2.96,3.86,.49,7.61,3.19,13.73,8.01,18.18,4.96,4.59,11.67,7.05,18.46,6.75,2.67-.14,5.26-.7,7.77-1.69l1.56,1.73h18.52v-2.47c2.13,1.53,4.73,2.44,7.55,2.44h6.16v.03h18.52l1.55-1.73c2.48,.96,5.09,1.51,7.75,1.63,13.9,.7,25.73-10.01,26.43-23.88,.02-.44,.03-.88,.03-1.3,.04-7.01-2.88-13.75-8.03-18.51Z"/></g><g><rect class="cls-1" x="5" y="5" width="47.89" height="8.69"/><path class="cls-1" d="M125.13,28.17h-6.29v44.64c0,4.42,3.58,8,8,8h6.31V36.21c0-4.42-3.58-8-8-8"/><path class="cls-1" d="M25.89,36.22c0-4.42-3.58-8-8-8h-6.33v12.11H5v12.94h3.19c1.85,0,3.35,1.49,3.36,3.34,0,0,0,0,0,.01v4c0,11.16,9.03,20.2,20.19,20.21,.01,0,.03,0,.04,0h1.62v-12.36l-.58-.07c-3.94-.48-6.89-3.82-6.9-7.79v-7.34h7.48v-12.94h-7.51v-4.11Z"/><path class="cls-1" d="M161.93,69.13c-2.37,.25-4.74-.47-6.57-2-3.63-3.14-4.02-8.63-.88-12.26,.27-.31,.57-.61,.88-.88,1.83-1.53,4.2-2.25,6.57-2,4.74,.56,8.13,4.86,7.57,9.61-.47,3.97-3.6,7.1-7.57,7.57m13.93-23.39c-4.83-4.3-11.64-6.34-17.45-4.25-2.16,.75-4.21,1.8-6.08,3.12v-8.4c-.03-4.41-3.59-7.97-8-8h-6.33v52.59h11.29l1-1.11c.88-.99,2.31-1.29,3.51-.73,2.29,1.04,4.76,1.63,7.27,1.75,11.14,.56,20.62-8.01,21.18-19.14,.02-.35,.03-.71,.03-1.07,.04-5.62-2.29-10.99-6.42-14.81"/><path class="cls-1" d="M114.25,60.53v-11.6c0-4.45-3.61-8.06-8.06-8.06h-.07l-6.24,.05v19.62c0,1.55-.41,3.07-1.21,4.4l-.25,.38-.15,.23c-.13,.19-.28,.38-.42,.55h0c-.16,.2-.33,.39-.51,.56h0c-.14,.13-.27,.27-.41,.39l-.13,.1c-1.27,1.08-2.84,1.75-4.5,1.92-.36,.03-.71,.03-1.07,0h-.92c-.95-.1-1.87-.37-2.72-.8-.69-.32-1.33-.73-1.91-1.21-1.92-1.62-3.15-3.91-3.44-6.41-.71-5.3-1.26-10-3.7-13.09-3.64-4.65-8.91-6.73-12.48-6.73-5.65,0-10.76,2.06-13.31,6.53v-11.15c0-4.42-3.58-8-8-8h-6.3v52.62h14.33v-20.29h0c.01-.74,.12-1.48,.31-2.2,.44-1.68,1.38-3.2,2.69-4.34,.32-.27,.65-.51,1-.73,.32-.2,.65-.38,1-.54,1.43-.65,3.01-.9,4.57-.73l.45,.08c4.35,.7,6.88,4.12,7.16,8.47,.4,6.19,2.41,11.13,6.42,14.83,4.01,3.71,9.34,5.67,14.8,5.42,2.51-.13,4.98-.74,7.26-1.8,1.21-.58,2.66-.28,3.55,.73l1,1.11h11.29l-.03-20.31Z"/></g></g></g></svg>